# Blender v2.80 (sub 75) OBJ File: ''
# www.blender.org
mtllib ak3.mtl
o Model_0_Mesh
v 0.284430 1.095690 -0.590325
v 0.284430 1.095690 -0.992160
v 1.106940 1.240875 -0.992160
v 1.106940 1.240875 -0.590325
v 0.215640 1.485390 -0.590325
v 0.215640 1.485390 -0.992160
v 1.038150 1.630575 -0.992160
v 1.038150 1.630575 -0.590325
v -0.473310 1.145266 3.817065
v -0.473310 1.070476 3.732600
v 0.473310 1.070476 3.732600
v 0.473310 1.145266 3.817065
v -0.473310 1.345546 3.639720
v -0.473310 1.270771 3.555270
v 0.473310 1.270771 3.555270
v 0.473310 1.345546 3.639720
v 0.784035 -2.935364 2.461020
v 0.784035 -2.935364 4.184805
v -0.784035 -2.935364 4.184805
v -0.784035 -2.935364 2.461020
v 0.784035 -0.449070 2.048550
v 0.784020 -0.449069 3.772335
v -0.784035 -0.449069 3.772335
v -0.784035 -0.449070 2.048550
v 0.784035 0.900885 2.048550
v 0.784020 0.900886 3.907470
v -0.784035 0.900886 3.907470
v -0.784035 0.900885 2.048550
v 0.608385 1.825050 2.048550
v 0.608385 1.825050 3.083145
v -0.608385 1.825050 3.083145
v -0.608385 1.825050 2.048550
v 0.784035 -0.449070 -1.299480
v -0.784035 -0.449070 -1.299480
v 0.784035 0.900885 -1.299480
v -0.784035 0.900885 -1.299480
v 0.608385 1.825050 -1.299480
v -0.608385 1.825050 -1.299480
v 0.784035 0.072974 -4.491480
v -0.784020 0.072974 -4.491480
v 0.784035 0.900884 -4.491480
v -0.784020 0.900884 -4.491480
v 0.518310 1.825049 -4.491481
v -0.518310 1.825049 -4.491481
v 0.784020 -0.654644 4.680240
v -0.784035 -0.654644 4.680240
v 0.784020 0.668686 4.961535
v -0.784035 0.668686 4.961535
v 0.784020 -1.629659 6.189600
v -0.784035 -1.629659 6.189600
v 0.784020 0.940216 5.915265
v -0.784035 0.940216 5.915265
v 0.784020 -2.459069 9.188550
v -0.784035 -2.459069 9.188550
v 0.784020 0.728027 9.115770
v -0.784035 0.728027 9.115770
v 0.000000 1.223833 -9.412680
v 0.000000 1.223819 -4.378995
v 0.316440 1.092748 -9.412680
v 0.316440 1.092749 -4.378995
v 0.447510 0.776308 -9.412680
v 0.447510 0.776309 -4.378995
v 0.316440 0.459868 -9.412680
v 0.316440 0.459869 -4.378995
v 0.000000 0.328798 -9.412680
v 0.000000 0.328799 -4.378995
v -0.316440 0.459868 -9.412680
v -0.316440 0.459869 -4.378995
v -0.447510 0.776308 -9.412680
v -0.447510 0.776309 -4.378995
v -0.316440 1.092748 -9.412680
v -0.316440 1.092749 -4.378995
v 0.751035 1.074450 0.983235
v 0.641370 1.651485 0.983235
v 0.751035 1.074450 -1.066980
v 0.641370 1.651485 -1.066980
v 0.531810 1.032795 0.983235
v 0.422145 1.609830 0.983235
v 0.531810 1.032795 -1.066980
v 0.422145 1.609830 -1.066980
v -0.473310 1.527106 3.478980
v -0.473310 1.452331 3.394530
v 0.473310 1.452331 3.394530
v 0.473310 1.527106 3.478980
v -0.473310 1.727401 3.301650
v -0.473310 1.652611 3.217200
v 0.473310 1.652611 3.217200
v 0.473310 1.727401 3.301650
v -0.184995 0.681584 -4.231875
v -0.184995 0.681584 -7.628865
v 0.184995 0.681584 -7.628865
v 0.184995 0.681584 -4.231875
v -0.184995 1.587524 -4.231875
v -0.184995 1.587524 -6.653716
v 0.184995 1.587524 -6.653716
v 0.184995 1.587524 -4.231875
vt 0.871893 0.535336
vt 0.922508 0.535335
vt 0.922508 0.559316
vt 0.871893 0.559316
vt 0.971911 0.529657
vt 0.947560 0.529657
vt 0.947560 0.505676
vt 0.971911 0.505676
vt 0.922508 0.510984
vt 0.871893 0.510984
vt 0.871893 0.487004
vt 0.922508 0.487004
vt 0.871893 0.462652
vt 0.922508 0.462652
vt 0.562168 0.962138
vt 0.553048 0.962138
vt 0.553048 0.940510
vt 0.562168 0.940510
vt 0.647819 0.962138
vt 0.638699 0.962138
vt 0.638699 0.940510
vt 0.647819 0.940510
vt 0.562168 0.931390
vt 0.638699 0.931390
vt 0.638699 0.971258
vt 0.562168 0.971258
vt 0.602545 0.693994
vt 0.503047 0.693994
vt 0.503047 0.603486
vt 0.602544 0.603485
vt 0.433616 0.141177
vt 0.334404 0.141177
vt 0.326626 0.063479
vt 0.433616 0.063479
vt 0.409457 0.304752
vt 0.433301 0.447833
vt 0.334088 0.447904
vt 0.310245 0.304823
vt 0.357576 0.693994
vt 0.357576 0.603486
vt 0.433043 0.153594
vt 0.409360 0.296702
vt 0.310148 0.296742
vt 0.333831 0.153634
vt 0.748016 0.693994
vt 0.748016 0.603485
vt 0.374070 0.009337
vt 0.433616 0.009337
vt 0.321119 0.460348
vt 0.313360 0.538046
vt 0.252690 0.524696
vt 0.268862 0.448528
vt 0.626311 0.009337
vt 0.626311 0.063479
vt 0.334404 0.462318
vt 0.433616 0.462318
vt 0.433616 0.540015
vt 0.326626 0.540015
vt 0.488397 0.820231
vt 0.488397 0.890262
vt 0.428850 0.890262
vt 0.428850 0.820231
vt 0.357576 0.900371
vt 0.357576 0.810122
vt 0.626311 0.540015
vt 0.612930 0.550183
vt 0.494930 0.550183
vt 0.433616 0.594157
vt 0.374070 0.594157
vt 0.634704 0.063479
vt 0.634704 0.009337
vt 0.818488 0.008135
vt 0.818419 0.063479
vt 0.635567 0.594157
vt 0.635213 0.540016
vt 0.818924 0.538814
vt 0.819355 0.594157
vt 0.681092 0.820231
vt 0.681092 0.890262
vt 0.626311 0.462318
vt 0.626311 0.141177
vt 0.357576 0.796394
vt 0.357576 0.706145
vt 0.550271 0.706145
vt 0.550271 0.796394
vt 0.173642 0.256272
vt 0.266700 0.256272
vt 0.266700 0.305405
vt 0.173642 0.305405
vt 0.250930 0.360251
vt 0.189411 0.360250
vt 0.688205 0.890262
vt 0.688205 0.820231
vt 0.871920 0.825415
vt 0.871920 0.885077
vt 0.634704 0.462321
vt 0.818612 0.491165
vt 0.634704 0.141177
vt 0.818419 0.111130
vt 0.561859 0.796394
vt 0.561860 0.706145
vt 0.748016 0.706147
vt 0.748015 0.796396
vt 0.197802 0.540336
vt 0.181978 0.392431
vt 0.315359 0.064685
vt 0.324247 0.142263
vt 0.272167 0.154841
vt 0.254890 0.078916
vt 0.347050 0.810122
vt 0.347050 0.900371
vt 0.284929 0.900371
vt 0.284929 0.810122
vt 0.347050 0.706145
vt 0.347050 0.796394
vt 0.293473 0.796394
vt 0.293473 0.706145
vt 0.013595 0.528166
vt 0.009363 0.344734
vt 0.186108 0.212194
vt 0.199780 0.064075
vt 0.227856 0.900371
vt 0.227856 0.810122
vt 0.190053 0.796394
vt 0.190053 0.706145
vt 0.468869 0.217002
vt 0.561927 0.217002
vt 0.561926 0.406193
vt 0.468868 0.406193
vt 0.014204 0.262395
vt 0.015769 0.078921
vt 0.043247 0.900371
vt 0.043247 0.810122
vt 0.010969 0.796394
vt 0.010969 0.706145
vt 0.925920 0.314951
vt 0.620878 0.314951
vt 0.620878 0.294195
vt 0.925920 0.294195
vt 0.620878 0.273438
vt 0.925920 0.273438
vt 0.620878 0.252682
vt 0.925920 0.252682
vt 0.620878 0.231926
vt 0.925920 0.231925
vt 0.925920 0.397977
vt 0.620878 0.397977
vt 0.620878 0.377221
vt 0.925920 0.377220
vt 0.620878 0.356464
vt 0.925920 0.356464
vt 0.925920 0.335708
vt 0.620878 0.335708
vt 0.974348 0.280063
vt 0.989025 0.294740
vt 0.989025 0.315497
vt 0.974348 0.330173
vt 0.953592 0.330173
vt 0.938915 0.315497
vt 0.938915 0.294740
vt 0.953592 0.280063
vt 0.699876 0.917821
vt 0.844123 0.917821
vt 0.844123 0.933522
vt 0.699876 0.933521
vt 0.626311 0.594157
vt 0.612930 0.583989
vt 0.494930 0.583989
vt 0.699875 0.974847
vt 0.844123 0.974847
vt 0.859824 0.933522
vt 0.859824 0.974847
vt 0.684175 0.974847
vt 0.684175 0.933521
vt 0.844123 0.990547
vt 0.699875 0.990547
vt 0.448136 0.962138
vt 0.439016 0.962138
vt 0.439016 0.940510
vt 0.448136 0.940510
vt 0.533787 0.962138
vt 0.524667 0.962138
vt 0.524667 0.940510
vt 0.533787 0.940510
vt 0.448136 0.931390
vt 0.524667 0.931390
vt 0.524667 0.971258
vt 0.448136 0.971258
vt 0.766700 0.779349
vt 0.913464 0.779349
vt 0.972558 0.724449
vt 0.766700 0.724449
vt 0.913465 0.714066
vt 0.913465 0.691644
vt 0.994125 0.691644
vt 0.994125 0.714065
vt 0.913464 0.625643
vt 0.766700 0.625643
vt 0.766700 0.680543
vt 0.972558 0.680543
vt 0.766700 0.691644
vt 0.766700 0.714065
vn 0.0000 -0.0000 -1.0000
vn 0.9848 0.1738 0.0000
vn -0.0000 0.0000 1.0000
vn 0.1738 -0.9848 0.0000
vn -0.1738 0.9848 0.0000
vn -1.0000 0.0000 0.0000
vn 1.0000 0.0000 0.0000
vn 0.0000 0.6629 0.7487
vn 0.0000 -0.7487 0.6629
vn 0.0000 0.7487 -0.6629
vn 0.0000 -1.0000 0.0000
vn 0.0000 0.1637 0.9865
vn 0.0000 -0.1637 -0.9865
vn -0.9824 0.1867 -0.0000
vn 0.0000 1.0000 0.0000
vn 0.0000 0.6656 0.7463
vn 0.9824 0.1868 -0.0000
vn 0.9824 0.1867 0.0000
vn -0.9726 0.2322 -0.0137
vn 0.9726 0.2322 -0.0137
vn 0.0000 -0.9869 -0.1614
vn 0.0000 0.9766 0.2151
vn 0.0000 -0.9753 -0.2208
vn 0.0000 0.9618 -0.2738
vn 0.0000 -0.8400 -0.5426
vn 0.0000 0.0228 0.9997
vn 0.0000 0.9978 0.0662
vn 0.0000 -0.9638 -0.2666
vn 0.3827 0.9239 0.0000
vn 0.9239 0.3827 -0.0000
vn 0.9239 -0.3827 0.0000
vn 0.3827 -0.9239 0.0000
vn -0.3827 -0.9239 0.0000
vn -0.9239 -0.3827 0.0000
vn -0.3827 0.9239 0.0000
vn -0.9239 0.3827 -0.0000
vn -0.1867 0.9824 -0.0000
vn 0.1867 -0.9824 0.0000
vn 0.0000 0.7486 -0.6630
vn 0.0000 0.7326 -0.6806
usemtl None__Albedo_png
s off
f 6/1/1 7/2/1 3/3/1 2/4/1
f 7/5/2 8/6/2 4/7/2 3/8/2
f 8/9/3 5/10/3 1/11/3 4/12/3
f 1/11/4 2/13/4 3/14/4 4/12/4
f 8/9/5 7/2/5 6/1/5 5/10/5
f 13/15/6 14/16/6 10/17/6 9/18/6
f 15/19/7 16/20/7 12/21/7 11/22/7
f 16/20/8 13/15/8 9/18/8 12/21/8
f 9/18/9 10/23/9 11/24/9 12/21/9
f 16/20/10 15/25/10 14/26/10 13/15/10
f 17/27/11 18/28/11 19/29/11 20/30/11
f 24/31/6 23/32/6 27/33/6 28/34/6
f 17/35/7 21/36/7 22/37/7 18/38/7
f 18/28/12 22/39/12 23/40/12 19/29/12
f 19/41/6 23/42/6 24/43/6 20/44/6
f 21/45/13 17/27/13 20/30/13 24/46/13
f 28/34/14 27/33/14 31/47/14 32/48/14
f 22/49/7 26/50/7 47/51/7 45/52/7
f 28/34/14 32/48/14 38/53/14 36/54/14
f 22/55/7 21/56/7 25/57/7 26/58/7
f 29/59/15 32/60/15 31/61/15 30/62/15
f 27/63/16 26/64/16 30/62/16 31/61/16
f 25/57/17 35/65/17 75/66/17 73/67/17
f 26/58/18 25/57/18 29/68/18 30/69/18
f 36/70/19 38/71/19 44/72/19 42/73/19
f 37/74/20 35/75/20 41/76/20 43/77/20
f 32/60/15 29/59/15 37/78/15 38/79/15
f 25/57/7 21/56/7 33/80/7 35/65/7
f 24/31/6 28/34/6 36/54/6 34/81/6
f 21/82/11 24/83/11 34/84/11 33/85/11
f 39/86/1 40/87/1 42/88/1 41/89/1
f 41/89/1 42/88/1 44/90/1 43/91/1
f 38/92/15 37/93/15 43/94/15 44/95/15
f 35/75/7 33/96/7 39/97/7 41/76/7
f 34/98/6 36/70/6 42/73/6 40/99/6
f 33/100/21 34/101/21 40/102/21 39/103/21
f 45/52/7 47/51/7 51/104/7 49/105/7
f 27/106/6 23/107/6 46/108/6 48/109/6
f 26/110/22 27/111/22 48/112/22 47/113/22
f 23/114/23 22/115/23 45/116/23 46/117/23
f 49/105/7 51/104/7 55/118/7 53/119/7
f 48/109/6 46/108/6 50/120/6 52/121/6
f 47/113/24 48/112/24 52/122/24 51/123/24
f 46/117/25 45/116/25 49/124/25 50/125/25
f 54/126/26 53/127/26 55/128/26 56/129/26
f 52/121/6 50/120/6 54/130/6 56/131/6
f 51/123/27 52/122/27 56/132/27 55/133/27
f 50/125/28 49/124/28 53/134/28 54/135/28
f 57/136/29 58/137/29 60/138/29 59/139/29
f 59/139/30 60/138/30 62/140/30 61/141/30
f 61/141/31 62/140/31 64/142/31 63/143/31
f 63/143/32 64/142/32 66/144/32 65/145/32
f 65/146/33 66/147/33 68/148/33 67/149/33
f 67/149/34 68/148/34 70/150/34 69/151/34
f 71/152/35 72/153/35 58/137/35 57/136/35
f 69/151/36 70/150/36 72/153/36 71/152/36
f 57/154/1 59/155/1 61/156/1 63/157/1 65/158/1 67/159/1 69/160/1 71/161/1
f 73/162/37 75/163/37 79/164/37 77/165/37
f 35/65/18 37/166/18 76/167/18 75/66/18
f 29/68/18 25/57/18 73/67/18 74/168/18
f 37/166/18 29/68/18 74/168/18 76/167/18
f 78/169/18 77/165/18 79/164/18 80/170/18
f 75/171/3 76/172/3 80/170/3 79/164/3
f 74/173/1 73/174/1 77/165/1 78/169/1
f 76/175/38 74/176/38 78/169/38 80/170/38
f 85/177/6 86/178/6 82/179/6 81/180/6
f 87/181/7 88/182/7 84/183/7 83/184/7
f 88/182/8 85/177/8 81/180/8 84/183/8
f 81/180/9 82/185/9 83/186/9 84/183/9
f 88/182/39 87/187/39 86/188/39 85/177/39
f 93/189/6 94/190/6 90/191/6 89/192/6
f 94/193/40 95/194/40 91/195/40 90/196/40
f 95/197/7 96/198/7 92/199/7 91/200/7
f 96/201/15 95/194/15 94/193/15 93/202/15
o Model_0.001_Mesh.001
v 0.653355 -4.128565 -1.418520
v 0.653355 -4.428865 0.994215
v -0.653355 -4.428865 0.994215
v -0.653355 -4.128565 -1.418520
v 0.653355 0.835550 -1.136220
v 0.653355 0.835550 1.241760
v -0.653355 0.835550 1.241760
v -0.653355 0.835550 -1.136220
v 0.653355 -2.117200 -1.136220
v 0.653355 -2.117200 1.241760
v -0.653355 -2.117200 1.241760
v -0.653355 -2.117200 -1.136220
vt 0.611188 0.789702
vt 0.338718 0.789700
vt 0.338720 0.643264
vt 0.611189 0.643267
vt 0.585990 0.261243
vt 0.604778 0.591609
vt 0.338720 0.606740
vt 0.319932 0.276373
vt 0.804659 0.280777
vt 0.804659 0.611678
vt 0.658223 0.611678
vt 0.658223 0.280777
vt 0.302606 0.276373
vt 0.283818 0.606740
vt 0.017760 0.591609
vt 0.036548 0.261243
vt 0.604778 0.034405
vt 0.332920 0.016158
vt 0.804659 0.020238
vt 0.658223 0.020238
vt 0.289618 0.016158
vt 0.017760 0.034405
vt 0.830568 0.578753
vt 0.830567 0.247853
vt 0.977003 0.247853
vt 0.977003 0.578753
vt 0.017331 0.789700
vt 0.017330 0.643265
vt 0.283818 0.643264
vt 0.283819 0.789700
vt 0.830567 0.020238
vt 0.977003 0.020238
vn 0.0000 -0.9923 -0.1235
vn 1.0000 0.0000 0.0000
vn 0.0000 0.0000 1.0000
vn -1.0000 0.0000 0.0000
vn 0.0000 -0.1065 0.9943
vn 0.0000 0.0000 -1.0000
vn 0.0000 1.0000 0.0000
vn 0.0000 0.1390 -0.9903
usemtl Material.001
s off
f 97/203/41 98/204/41 99/205/41 100/206/41
f 105/207/42 101/208/42 102/209/42 106/210/42
f 106/211/43 102/212/43 103/213/43 107/214/43
f 107/215/44 103/216/44 104/217/44 108/218/44
f 97/219/42 105/207/42 106/210/42 98/220/42
f 98/221/45 106/211/45 107/214/45 99/222/45
f 99/223/44 107/215/44 108/218/44 100/224/44
f 101/225/46 105/226/46 108/227/46 104/228/46
f 101/229/47 104/230/47 103/231/47 102/232/47
f 105/226/48 97/233/48 100/234/48 108/227/48
